<?xml version="1.0" encoding="UTF-8"?>
<svg height="16px" viewBox="0 0 16 16" width="16px" xmlns="http://www.w3.org/2000/svg">
    <!-- Clipboard board with rounded corners -->
    <path d="m 3 2 c -1.1 0 -2 0.9 -2 2 v 10 c 0 1.1 0.9 2 2 2 h 10 c 1.1 0 2 -0.9 2 -2 v -10 c 0 -1.1 -0.9 -2 -2 -2 h -2 v 1 c 0 0.55 -0.45 1 -1 1 h -4 c -0.55 0 -1 -0.45 -1 -1 v -1 z m 3 -2 h 4 c 0.55 0 1 0.45 1 1 v 1 c 0 0.55 -0.45 1 -1 1 h -4 c -0.55 0 -1 -0.45 -1 -1 v -1 c 0 -0.55 0.45 -1 1 -1 z m -2 6 h 8 v 1.5 h -8 z m 0 3 h 8 v 1.5 h -8 z m 0 3 h 5 v 1.5 h -5 z" fill="#2e3436"/>
</svg>
